<?xml version="1.0" standalone="no"?>
<!DOCTYPE svg PUBLIC "-//W3C//DTD SVG 20010904//EN"
 "http://www.w3.org/TR/2001/REC-SVG-20010904/DTD/svg10.dtd">
<svg version="1.0" xmlns="http://www.w3.org/2000/svg"
 width="720.000000pt" height="720.000000pt" viewBox="0 0 720.000000 720.000000"
 preserveAspectRatio="xMidYMid meet">
<metadata>
Created by potrace 1.14, written by Peter Selinger 2001-2017
</metadata>
<g transform="translate(0.000000,720.000000) scale(0.100000,-0.100000)"
fill="#000000" stroke="none">
<path d="M695 7183 c-106 -15 -250 -72 -342 -134 -151 -104 -266 -268 -320
-459 -17 -62 -18 -181 -18 -2990 l0 -2925 23 -78 c80 -278 281 -479 559 -559
l78 -23 2925 0 2925 0 78 23 c278 80 479 281 559 559 l23 78 0 2925 0 2925
-23 78 c-79 275 -275 473 -554 559 l-73 23 -2905 1 c-1598 1 -2918 -1 -2935
-3z m910 -657 c60 -28 97 -66 124 -126 19 -40 21 -65 21 -247 l0 -203 203 0
c192 0 205 -1 252 -24 91 -43 145 -126 145 -226 0 -100 -54 -183 -145 -226
-47 -23 -60 -24 -252 -24 l-203 0 0 -202 c0 -183 -2 -208 -21 -248 -27 -60
-64 -98 -124 -126 -127 -60 -275 -4 -334 126 -19 40 -21 65 -21 248 l0 202
-202 0 c-193 0 -206 1 -253 24 -91 43 -145 126 -145 226 0 100 54 183 145 226
47 23 60 24 253 24 l202 0 0 203 c0 182 2 207 21 247 42 93 129 150 229 150
37 0 71 -8 105 -24z m2110 -4 c46 -23 86 -63 108 -107 8 -16 146 -430 307
-920 161 -489 299 -903 307 -919 19 -37 102 -120 139 -139 16 -8 430 -146 919
-307 490 -161 904 -299 920 -307 43 -22 84 -62 108 -108 29 -53 30 -174 3
-225 -25 -48 -64 -88 -106 -110 -19 -9 -435 -149 -925 -310 -489 -161 -903
-299 -919 -307 -37 -19 -120 -102 -139 -139 -8 -16 -146 -429 -307 -919 -161
-490 -299 -903 -307 -920 -22 -43 -62 -84 -108 -108 -53 -29 -174 -30 -225 -3
-48 25 -88 64 -110 106 -9 19 -149 435 -310 925 -161 490 -299 903 -307 919
-19 37 -102 120 -139 139 -16 8 -429 146 -919 307 -490 161 -903 299 -920 307
-43 22 -84 62 -108 108 -29 53 -30 174 -3 225 25 48 64 88 106 110 19 9 435
149 925 310 490 161 903 299 919 307 37 19 120 102 139 139 8 16 146 430 307
919 161 490 299 904 307 920 30 59 84 103 153 126 41 14 142 3 185 -19z m2090
-4196 c60 -28 97 -66 124 -126 19 -40 21 -65 21 -247 l0 -203 203 0 c192 0
205 -1 252 -24 91 -43 145 -126 145 -226 0 -100 -54 -183 -145 -226 -47 -23
-60 -24 -252 -24 l-203 0 0 -202 c0 -183 -2 -208 -21 -248 -27 -60 -64 -98
-124 -126 -127 -60 -275 -4 -334 126 -19 40 -21 65 -21 248 l0 202 -202 0
c-193 0 -206 1 -253 24 -91 43 -145 126 -145 226 0 100 54 183 145 226 47 23
60 24 253 24 l202 0 0 203 c0 182 2 207 21 247 42 93 129 150 229 150 37 0 71
-8 105 -24z"/>
<path d="M3430 4978 c-91 -277 -180 -537 -197 -578 -84 -194 -239 -348 -434
-433 -41 -18 -300 -106 -577 -197 -276 -90 -502 -167 -502 -170 0 -3 226 -80
502 -170 277 -91 536 -179 577 -197 195 -85 350 -239 434 -433 17 -41 106
-301 197 -578 91 -276 167 -502 170 -502 3 0 80 226 170 502 91 277 180 537
197 578 84 194 239 348 434 433 41 18 300 106 577 197 276 91 502 167 502 170
0 3 -226 80 -502 170 -277 91 -536 179 -577 197 -195 85 -350 239 -434 433
-17 41 -106 301 -197 578 -91 276 -167 502 -170 502 -3 0 -80 -226 -170 -502z"/>
</g>
</svg>
